<svg xmlns="http://www.w3.org/2000/svg" xmlns:xlink="http://www.w3.org/1999/xlink" width="182" height="48" viewBox="0 0 182 48">
    <defs>
        <path id="a" d="M0 47h172.924V.053H0z"/>
    </defs>
    <g fill="none" fill-rule="evenodd">
        <path fill="#FEFEFE" d="M55.722 44.299V18.702h3.667v11.684h.072l5.357-11.684h3.667l-4.997 10.245 5.93 15.352h-3.882l-4.17-11.36-1.977 3.703v7.657z"/>
        <path fill="#F3961A" d="M74.74 44.3h3.667V18.701H74.74z"/>
        <g transform="translate(0 .947)">
            <path fill="#FEFEFE" d="M89.902 21.206v8.7h1.762c.742 0 1.318-.108 1.725-.324.408-.216.707-.515.899-.898.192-.36.306-.803.342-1.331.036-.527.054-1.114.054-1.761 0-.599-.013-1.168-.036-1.708-.024-.539-.132-1.012-.324-1.42a2.05 2.05 0 0 0-.863-.935c-.383-.216-.934-.323-1.654-.323h-1.905zm-3.667 22.146V17.755h5.5c1.007 0 1.894.132 2.66.395.768.264 1.463.731 2.086 1.402a5.505 5.505 0 0 1 1.295 2.355c.239.899.359 2.115.359 3.649 0 1.15-.066 2.121-.198 2.912a6.08 6.08 0 0 1-.845 2.229 5.351 5.351 0 0 1-2.013 1.959c-.84.467-1.941.701-3.307.701h-1.87v9.995h-3.667z"/>
            <mask id="b" fill="#fff">
                <use xlink:href="#a"/>
            </mask>
            <path fill="#FEFEFE" d="M104.57 43.352h3.667V17.755h-3.667zM114.204 43.352v-3.235l6.903-18.911h-6.543v-3.451h10.534v2.91l-7.047 19.236h7.047v3.45zM129.771 43.352v-3.235l6.903-18.911h-6.543v-3.451h10.534v2.91l-7.047 19.236h7.047v3.45zM153.93 34.4l-1.798-9.276h-.072l-1.797 9.275h3.667zm-9.06 8.951l5.716-25.597h3.056l5.717 25.597h-3.667l-1.079-5.5h-4.997l-1.079 5.5h-3.667z" mask="url(#b)"/>
            <path fill="#F8B218" d="M7.636 34.325a4.09 4.09 0 0 0-.061-.454 23.363 23.363 0 0 1 6.737-19.51c.3-.302.6-.59.907-.859a23.299 23.299 0 0 1 18.616-5.879c.297.061.6.08.9.056l-.575.331 11.824 35.84c.057.164.088.336.092.51a1.71 1.71 0 0 1-2.274 1.673L7.96 34.21l-.325.116z" mask="url(#b)"/>
            <path fill="#FBBF10" d="M9.407 32.554a4.09 4.09 0 0 0-.06-.454 23.315 23.315 0 0 1 5.871-18.598 23.298 23.298 0 0 1 18.617-5.878c.296.06.6.079.901.055l-.577.33 11.825 35.842a1.7 1.7 0 0 1 .092.509 1.924 1.924 0 0 1-.503-.098L9.733 32.438l-.326.116z" mask="url(#b)"/>
            <path fill="#EE7C12" d="M1.12 35.863a30.66 30.66 0 0 1 8.9-25.794c.313-.312.625-.613.944-.894a30.594 30.594 0 0 1 24.85-8.006 3.39 3.39 0 0 1 2.698 4.107 3.66 3.66 0 0 1-.239.73 3.71 3.71 0 0 1-3.059 2.151 3.353 3.353 0 0 1-.889-.043 23.343 23.343 0 0 0-18.463 5.97c-.319.282-.625.577-.938.89a23.47 23.47 0 0 0-6.859 19.388c.024.147.043.3.055.447a3.495 3.495 0 0 1-.33 1.667 3.661 3.661 0 0 1-2.564 2.084 3.389 3.389 0 0 1-4.106-2.697" mask="url(#b)"/>
            <path fill="#F3961A" d="M2.959 34.024a30.603 30.603 0 0 1 8.005-24.85 30.597 30.597 0 0 1 24.85-8.005 3.39 3.39 0 0 1 2.698 4.107 3.63 3.63 0 0 1-.239.728 3.61 3.61 0 0 1-2.109.271 23.398 23.398 0 0 0-19.401 6.86 22.07 22.07 0 0 0-.901.95c-.319.281-.625.576-.938.888a23.47 23.47 0 0 0-6.859 19.39c.024.145.043.3.055.446a3.498 3.498 0 0 1-.331 1.667 3.5 3.5 0 0 1-.723.245 3.391 3.391 0 0 1-4.107-2.697" mask="url(#b)"/>
            <path fill="#C42928" d="M24.12 20.49a4.334 4.334 0 0 1 0-6.13 4.63 4.63 0 0 1 1.053-.785 4.346 4.346 0 1 1 5.86 5.86c-.21.387-.474.743-.785 1.055a4.335 4.335 0 0 1-6.129 0M17.376 32.137a4.336 4.336 0 0 1 0-6.13c.312-.31.667-.574 1.055-.784a4.346 4.346 0 0 1 5.86 5.859c-.21.388-.475.743-.785 1.055a4.336 4.336 0 0 1-6.13 0M30.249 35.202a3.468 3.468 0 0 1 0-4.904 3.246 3.246 0 0 1 1.103-.736 3.459 3.459 0 0 1 4.536 4.536 3.252 3.252 0 0 1-.735 1.104 3.468 3.468 0 0 1-4.904 0" mask="url(#b)"/>
            <path fill="#E84639" d="M31.033 19.436c-1.185 1.186-3.457.834-5.075-.785-1.618-1.617-1.97-3.89-.785-5.075 1.185-1.186 3.458-.834 5.076.784 1.618 1.619 1.97 3.89.784 5.076M24.29 31.082c-1.184 1.186-3.456.834-5.075-.784-1.617-1.618-1.97-3.891-.785-5.075 1.186-1.186 3.457-.834 5.076.784 1.619 1.618 1.97 3.89.785 5.075M35.888 34.099c-.846.846-2.548.517-3.8-.736-1.253-1.252-1.582-2.954-.736-3.8.847-.847 2.548-.518 3.801.735 1.252 1.253 1.581 2.954.735 3.8" mask="url(#b)"/>
            <path fill="#020303" d="M1.972 35.71A29.716 29.716 0 0 1 9.85 11.5l.014-.012.025-.025c.23-.247.463-.494.707-.74l.055-.054A29.737 29.737 0 0 1 35.66 2.02c.67.117 1.265.504 1.64 1.072.39.587.522 1.308.365 1.995a2.801 2.801 0 0 1-.76 1.389 2.767 2.767 0 0 1-2.432.785 24.31 24.31 0 0 0-20.162 7.098A24.112 24.112 0 0 0 7.21 34.517a2.798 2.798 0 0 1-2.172 3.198 2.578 2.578 0 0 1-1.995-.364 2.481 2.481 0 0 1-1.072-1.64zm43.203 8.42a.895.895 0 0 1-1.093 1.094L8.879 33.916a22.882 22.882 0 0 1 6.658-18.33 22.551 22.551 0 0 1 18.33-6.66l11.308 35.205zm-39.77-4.718a4.564 4.564 0 0 0 3.5-3.662l34.644 11.124a2.6 2.6 0 0 0 3.275-3.275L35.698 8.954a4.57 4.57 0 0 0 3.663-3.498 4.299 4.299 0 0 0-.62-3.322 4.214 4.214 0 0 0-2.77-1.817A31.59 31.59 0 0 0 9.408 9.456a27.15 27.15 0 0 0-.784.818c-.048.043-.093.09-.133.14a31.566 31.566 0 0 0-8.227 25.61 4.212 4.212 0 0 0 1.816 2.77 4.297 4.297 0 0 0 3.325.618z" mask="url(#b)"/>
            <path fill="#020303" d="M29.636 19.877a3.468 3.468 0 1 1-4.904-4.905 3.468 3.468 0 0 1 4.904 4.905m-6.13-6.13a5.202 5.202 0 1 0 7.356 0 5.207 5.207 0 0 0-7.356 0M22.893 31.523a3.468 3.468 0 1 1-4.904-4.905 3.468 3.468 0 0 1 4.904 4.905m1.226-6.13a5.202 5.202 0 1 0 0 7.357 5.209 5.209 0 0 0 0-7.357M34.54 34.589a2.6 2.6 0 1 1-3.678-3.676 2.6 2.6 0 0 1 3.677 3.676m-4.904-4.904a4.334 4.334 0 1 0 6.13 6.131 4.334 4.334 0 0 0-6.13-6.131M18.023 22.241a.868.868 0 0 0-.324-1.183.866.866 0 1 1 .86-1.505.866.866 0 1 0 .86-1.504 2.601 2.601 0 1 0-2.582 4.515.865.865 0 0 0 1.186-.323M32.516 22.906a2.591 2.591 0 0 0-1.628 1.146 2.581 2.581 0 0 0-.341 1.96.867.867 0 1 0 1.692-.379.867.867 0 1 1 1.69-.378.867.867 0 1 0 1.692-.38 2.595 2.595 0 0 0-1.144-1.628 2.606 2.606 0 0 0-1.961-.34M39.016 36.5a.858.858 0 0 0-.127 1.222.866.866 0 0 1-.764 1.409.868.868 0 0 1-.584-.317.868.868 0 0 0-1.22-.126.576.576 0 0 0-.062.06.866.866 0 0 0-.058 1.16 2.6 2.6 0 1 0 4.036-3.278.86.86 0 0 0-.583-.318.86.86 0 0 0-.638.189" mask="url(#b)"/>
            <path fill="#E84639" d="M172.923 39.308a3.957 3.957 0 1 1-7.914.001 3.957 3.957 0 0 1 7.914-.001" mask="url(#b)"/>
        </g>
    </g>
</svg>
