<svg xmlns="http://www.w3.org/2000/svg" width="56" height="80" viewBox="0 0 56 80">
    <g fill="none" fill-rule="nonzero">
        <path fill="#F79638" d="M5 48h47v28H5z"/>
        <path fill="#F79638" d="M5 48h47v28H5z"/>
        <path fill="#F97D21" d="M11.59 48H5v28h47v-5.209H34.78c-12.808 0-23.19-10.204-23.19-22.791z"/>
        <path fill="#B76224" d="M6 21h44v16H6z"/>
        <path fill="#A04D15" d="M11.898 21H6v16h44v-6.478H21.235c-5.156 0-9.337-4.263-9.337-9.522z"/>
        <path fill="#7E4335" d="M6.997 24h43.006A1.998 1.998 0 0 0 52 22c0-1.105-.894-2-1.997-2H6.997A1.998 1.998 0 0 0 5 22c0 1.105.894 2 1.997 2z"/>
        <path fill="#6D362C" d="M9.917 22.175A1.999 1.999 0 0 1 7.928 20h-.93A1.998 1.998 0 0 0 5 22c0 1.105.894 2 1.997 2h43.014c1.044 0 1.9-.803 1.989-1.825H9.917z"/>
        <path fill="#E7E7E7" d="M45.683 33L49 43h-5.63L41 33z"/>
        <path fill="#CECCCC" d="M49 43v6.037C49 50.673 47.658 52 46 52s-3-1.327-3-2.963V43h6zM37 43v6.037C37 50.673 35.656 52 34 52s-3-1.327-3-2.963V43h6z"/>
        <path fill="#E7E7E7" d="M34.603 33L36 43h-5.534L30 33zM26 33l-.466 10H20l1.398-10z"/>
        <path fill="#CECCCC" d="M25 43v6.037C25 50.673 23.658 52 22 52s-3-1.327-3-2.963V43h6zM13 43v6.037C13 50.673 11.656 52 10 52s-3-1.327-3-2.963V43h6z"/>
        <path fill="#E7E7E7" d="M15 33l-2.369 10H7l3.316-10z"/>
        <g fill="#F64446">
            <path d="M11.42 33.138l-3.46 9.784H2.085l4.392-9.657a.219.219 0 0 1 .2-.127h4.743zM21.194 33.138l-1.483 9.784h-5.875l2.472-9.784zM30.966 33.138l.494 9.784h-5.874l.494-9.784zM40.74 33.138l2.472 9.784h-5.875l-1.483-9.784zM50.644 33.428l4.317 9.495h-5.875l-3.46-9.785h4.56a.5.5 0 0 1 .458.29z"/>
        </g>
        <path fill="#EA2F38" d="M55 43v6.037C55 50.673 53.658 52 52 52c-1.656 0-3-1.327-3-2.963V43h6zM42 43v6.037C42 50.673 40.656 52 39 52c-1.658 0-3-1.327-3-2.963V43h6zM31 43v6.037C31 50.673 29.658 52 28 52c-1.656 0-3-1.327-3-2.963V43h6zM20 43v6.037C20 50.673 18.656 52 17 52c-1.657 0-3-1.327-3-2.963V43h6zM7 43v6.037C7 50.673 5.657 52 4 52c-1.656 0-3-1.327-3-2.963V43h6z"/>
        <path fill="#FED974" d="M37.389 2.2c7.108 3.037 9.898 8.83 8.062 17.572h-5.485c-1.009 0-1.826.789-1.826 1.762v4.231c0 .577-.243 1.1-.635 1.48a2.2 2.2 0 0 1-1.534.612c-1.197 0-2.168-.937-2.168-2.092v-4.231c0-.486-.205-.927-.535-1.245a1.853 1.853 0 0 0-1.29-.517c-1.008 0-1.824.789-1.824 1.762v2.546c0 1.189-1.029 2.146-2.274 2.09a2.165 2.165 0 0 1-2.063-2.15v-2.486c0-.973-.818-1.762-1.826-1.762h-.619c-1.008 0-1.826.789-1.826 1.762v6.375c0 1.188-1.027 2.145-2.273 2.089a2.165 2.165 0 0 1-2.063-2.149v-6.315c0-.973-.816-1.762-1.825-1.762h-2.64c-.719 0-1.02-.886-.439-1.297l22.72-16.04A2.44 2.44 0 0 1 37.39 2.2z"/>
        <path fill="#F4CA62" d="M14.557 18.686L36.762 2.441c.076-.056.156-.106.238-.152-.063-.028-.124-.059-.188-.086a2.314 2.314 0 0 0-2.309.238L12.3 18.686c-.568.416-.273 1.314.43 1.314h2.258c-.703 0-.997-.898-.43-1.314zM19.008 27.897v-6.175c0-.951-.79-1.722-1.768-1.722H15c.977 0 1.768.771 1.768 1.722v6.175c0 1.1.871 2.048 2.001 2.1.454.022.879-.098 1.231-.317a2.115 2.115 0 0 1-.992-1.783zM35.985 25.93v-4.187c0-.48-.205-.917-.536-1.232A1.867 1.867 0 0 0 34.157 20c-.44 0-.842.148-1.157.394a1.699 1.699 0 0 1 .671 1.348v4.188c0 1.143.973 2.07 2.172 2.07.426 0 .822-.118 1.157-.32-.609-.367-1.015-1.013-1.015-1.75zM28.052 23.647v-2.72c0-1.064-.758-1.927-1.693-1.927h-.575c-.283 0-.55.08-.784.22.54.323.909.965.909 1.706v2.72c0 1.232.832 2.293 1.914 2.351.434.024.84-.11 1.177-.355-.573-.422-.948-1.17-.948-1.995z"/>
        <path fill="#F64446" d="M27.51 7c.902.702 1.49 1.844 1.49 3.134C29 12.27 27.393 14 25.41 14c-1.591 0-2.939-1.114-3.41-2.657L27.51 7z"/>
        <path fill="#F79638" d="M36.838 2.203C43.576 5.278 46.22 11.145 44.48 20h-4.017v-.019c.764-7.41-1.38-12.428-7.433-15.191a2.204 2.204 0 0 0-.697-.191.467.467 0 0 1-.333-.197l2.6-1.96a2.188 2.188 0 0 1 2.238-.24z"/>
        <path fill="#F64446" d="M37 15a2 2 0 1 1-4 0 2 2 0 0 1 4 0z"/>
        <path fill="#7E4335" d="M54.416 75.585A2 2 0 0 1 55 77.001C55 78.104 54.106 79 53.003 79H3.997A1.996 1.996 0 0 1 2 77c0-1.104.894-2 1.997-2h49.006c.551 0 1.05.224 1.413.585z"/>
        <path fill="#6D362C" d="M8.123 77a1.994 1.994 0 0 1-1.998-1.999V75H3.997A1.999 1.999 0 0 0 2 77a1.994 1.994 0 0 0 1.997 2h49.006A1.999 1.999 0 0 0 55 77H8.123z"/>
        <path fill="#B76224" d="M47 60.037V75H33V60.037C33 58.359 34.336 57 35.985 57h8.03C45.662 57 47 58.36 47 60.037z"/>
        <path fill="#A04D15" d="M43 60.633v2.734c0 .35-.308.633-.688.633h-5.626c-.378 0-.686-.283-.686-.633v-2.734c0-.35.308-.633.686-.633h5.626c.38 0 .688.283.688.633z"/>
        <path fill="#3DCFF3" d="M29 57.938v10.124a.943.943 0 0 1-.949.938H9.95A.943.943 0 0 1 9 68.062V57.938c0-.518.425-.938.949-.938H28.05c.524 0 .949.42.949.938z"/>
        <path fill="#ABEAF8" d="M28.051 57H19v12h9.051c.524 0 .949-.42.949-.938V57.938a.943.943 0 0 0-.949-.938z"/>
        <path fill="#000" d="M35.5 18c1.93 0 3.5-1.346 3.5-3s-1.57-3-3.5-3-3.5 1.346-3.5 3c0 1.655 1.57 3 3.5 3zm0-3.801c.515 0 .935.36.935.801 0 .442-.42.801-.935.801-.515 0-.935-.359-.935-.8 0-.443.42-.802.935-.802zM18.656 18.46l.926.45c.126.06.254.09.381.09.413 0 .804-.306.964-.807.21-.655-.05-1.395-.583-1.654l-.927-.45c-.532-.258-1.134.063-1.344.718-.21.655.05 1.395.583 1.654zM27.17 19c.298 0 .596-.114.824-.34l.662-.66a1.171 1.171 0 0 0-1.65-1.66l-.662.66a1.172 1.172 0 0 0 .826 2zM32.988 9.971c.108.02.216.029.322.029.585 0 1.118-.287 1.267-.718l.383-1.1c.176-.508-.248-1.025-.95-1.153-.7-.128-1.411.18-1.587.688l-.383 1.1c-.176.51.248 1.025.948 1.154z"/>
        <path fill="#000" d="M52.803 73.602H52.8V53.307a4.103 4.103 0 0 0 2.682-3.845v-5.948c0-.164-.034-.327-.1-.478l-4.344-9.765v-9.064a3.163 3.163 0 0 0 1.762-2.832 3.165 3.165 0 0 0-3.16-3.163h-3.219C47.77 9.542 44.784 3.52 37.53.304a3.528 3.528 0 0 0-3.506.369L11.573 17.11a1.91 1.91 0 0 0-.733 1.102H6.444a3.165 3.165 0 0 0-3.162 3.163c0 1.24.72 2.314 1.762 2.832v9.12L.727 43.036c-.067.15-.101.314-.101.479v5.947a4.102 4.102 0 0 0 2.573 3.802v20.338h-.002A3.201 3.201 0 0 0 0 76.802 3.201 3.201 0 0 0 3.197 80h49.606A3.201 3.201 0 0 0 56 76.801a3.201 3.201 0 0 0-3.197-3.199zM51.39 51.204c-.96 0-1.74-.782-1.74-1.742v-4.77h3.48v4.77c0 .96-.78 1.742-1.74 1.742zm-4.094-1.742c0 .96-.78 1.742-1.74 1.742s-1.74-.782-1.74-1.742v-4.77h3.48v4.77zm-23.335 0c0 .96-.78 1.742-1.74 1.742s-1.741-.782-1.741-1.742v-4.77h3.481v4.77zm-5.834 0c0 .96-.78 1.742-1.74 1.742s-1.741-.782-1.741-1.742v-4.77h3.481v4.77zm-5.834 0c0 .96-.78 1.742-1.74 1.742s-1.74-.782-1.74-1.742v-4.77h3.48v4.77zM7.397 24.578h8.54v3.09c0 1.81 1.388 3.293 3.16 3.376a3.288 3.288 0 0 0 2.45-.914 3.336 3.336 0 0 0 1.028-2.402v-3.15h1.97c.35 1.411 1.565 2.473 3.055 2.543a3.289 3.289 0 0 0 2.45-.914 3.336 3.336 0 0 0 .932-1.63h1.35v.954a3.324 3.324 0 0 0 3.32 3.32c1.83 0 3.318-1.489 3.318-3.32v-.953h9.716V32.4H7.397v-7.823zm17.044-2.355h-1.866v-1.029c0-.346.281-.628.627-.628h.61c.347 0 .628.282.628.628v1.03zm7.892 0h-1.255v-1.029a.628.628 0 0 1 1.255 0v1.03zM18.76 34.755h.653l-1.124 7.583h-3.317l1.873-7.583h1.915zm3.031 0h2.601l-.374 7.583h-3.35l1.123-7.583zm4.957 0h2.613l.374 7.583h-3.361l.374-7.583zm5.343 7.583l-.375-7.583h2.602l1.123 7.583h-3.35zm5.729 0l-1.124-7.583h2.567l1.874 7.583H37.82zm5.74 0l-1.873-7.583h2.511l2.623 7.583h-3.26zm5.75 0l-2.622-7.583h2.436l3.372 7.583h-3.185zM6.986 34.755H9.42L9.06 35.8a1.178 1.178 0 0 0 2.223.77l.627-1.814h2.512l-1.874 7.583h-3.26l.367-1.06a1.177 1.177 0 0 0-2.224-.77l-.633 1.83H3.613l3.372-7.583zm19.329 9.937h3.48v4.77c0 .96-.78 1.742-1.74 1.742s-1.74-.782-1.74-1.742v-4.77zm5.833 0h3.482v4.77c0 .96-.781 1.742-1.74 1.742-.96 0-1.742-.782-1.742-1.742v-4.77zm5.835 0h3.48v4.77c0 .96-.78 1.742-1.74 1.742s-1.74-.782-1.74-1.742v-4.77zm12.466-23.316a.81.81 0 0 1-.808.808H38.97v-.99c0-.346.282-.627.627-.627H49.64a.81.81 0 0 1 .809.809zM36.576 2.456c6.336 2.808 8.784 7.968 7.466 15.757h-1.935c.444-7.181-2.09-12.07-7.713-14.895l1.019-.745a1.17 1.17 0 0 1 1.163-.117zm-8.457 7.549a2.784 2.784 0 0 1-2.78 2.781 2.772 2.772 0 0 1-2.27-1.176l4.485-3.284c.361.479.565 1.068.565 1.679zM21.171 13a5.118 5.118 0 0 0 4.168 2.14 5.14 5.14 0 0 0 5.133-5.135c0-1.116-.367-2.19-1.02-3.068l2.684-1.966c.164.003.321.037.47.103 5.382 2.385 7.61 6.462 7.145 13.138h-.153c-.04 0-.081.003-.12.006a2.982 2.982 0 0 0-2.86 2.976v4.337a.968.968 0 0 1-.966.967.968.968 0 0 1-.966-.967v-4.337a2.985 2.985 0 0 0-2.98-2.982 2.985 2.985 0 0 0-2.98 2.982v2.61a.957.957 0 0 1-.3.7.958.958 0 0 1-.715.265c-.506-.024-.918-.484-.918-1.026v-2.55a2.985 2.985 0 0 0-2.98-2.98h-.611a2.985 2.985 0 0 0-2.98 2.98v6.534a.962.962 0 0 1-1.014.966c-.507-.024-.919-.484-.919-1.026v-6.473a2.982 2.982 0 0 0-2.859-2.976 1.127 1.127 0 0 0-.12-.006h-1.258L21.171 13zM6.444 20.567h8.865c.346 0 .627.281.627.627v.99H6.444a.81.81 0 0 1 0-1.617zM2.978 44.692H6.46v4.77c0 .96-.78 1.742-1.74 1.742s-1.74-.782-1.74-1.742v-4.77zm2.574 8.78a4.084 4.084 0 0 0 2.083-1.14 4.08 4.08 0 0 0 5.835 0 4.078 4.078 0 0 0 5.833 0 4.08 4.08 0 0 0 5.834 0 4.08 4.08 0 0 0 5.834 0 4.078 4.078 0 0 0 5.834 0 4.08 4.08 0 0 0 5.834 0 4.078 4.078 0 0 0 5.834 0 4.087 4.087 0 0 0 1.975 1.115v20.155h-2.124v-3.95a1.177 1.177 0 1 0-2.353 0v3.95H34.2v-13.68c0-1.013.823-1.837 1.836-1.837h8.1c1.011 0 1.835.824 1.835 1.836v5.023a1.176 1.176 0 1 0 2.353 0v-5.023c0-2.31-1.88-4.19-4.189-4.19h-8.1a4.194 4.194 0 0 0-4.188 4.19v13.681H5.552v-20.13zm47.25 24.174H3.198a.846.846 0 0 1 0-1.69h49.606a.846.846 0 0 1 0 1.69z"/>
        <path fill="#000" d="M43.161 60H37.84C36.825 60 36 60.763 36 61.7v2.6c0 .937.825 1.7 1.839 1.7h5.322C44.175 66 45 65.237 45 64.3v-2.6c0-.937-.825-1.7-1.839-1.7zm-.537 3.803h-4.248v-1.606h4.248v1.606zM27.838 56H9.162A2.172 2.172 0 0 0 7 58.178v10.644C7 70.023 7.97 71 9.162 71h18.676A2.172 2.172 0 0 0 30 68.822V58.178C30 56.977 29.03 56 27.838 56zM9.365 58.382h7.953v10.236H9.365V58.382zm18.27 10.236h-7.953V58.382h7.954v10.236zM43.812 69h-6.624c-.656 0-1.188.448-1.188 1 0 .553.532 1 1.188 1h6.624c.656 0 1.188-.447 1.188-1 0-.552-.532-1-1.188-1z"/>
    </g>
</svg>
