<svg xmlns="http://www.w3.org/2000/svg" width="73" height="73" viewBox="0 0 73 73">
    <g fill="none" fill-rule="nonzero">
        <path fill="#FF826E" d="M33.355 50.869v11.875H28.69v-4.75c0-2.624-2.089-4.75-4.667-4.75H7.69c-.852 0-1.645.237-2.334.641V50.87c0-3.93 3.139-7.125 7-7.125h14c.304 0 .595.024.887.06 3.442.439 6.113 3.443 6.113 7.065z"/>
        <path fill="#FC6E51" d="M4.685 61.428a4.47 4.47 0 0 1 .943-7.076 4.568 4.568 0 0 1 2.273-.608H23.81c2.511 0 4.545 2.014 4.545 4.5v4.5H7.9a4.48 4.48 0 0 1-1.101-.135 4.676 4.676 0 0 1-2.114-1.181z"/>
        <path fill="#FF826E" d="M70.355 61.744h-13l4.527-4.174a11.846 11.846 0 0 0 2.777-3.826c1.678.665 3.096 1.766 4.101 3.15a8.246 8.246 0 0 1 1.595 4.85z"/>
        <path fill="#FF826E" d="M65.286 51.182c.364 0 .717-.047 1.058-.116h.011c-.834 3.122-.846 3.157-.858 3.191a12.569 12.569 0 0 1-2.762 4.059l-4.502 4.428H52.356V24.53c1.328-.265 2.327-1.41 2.35-2.786 1.4.798 2.351 2.278 2.351 4V37.308l1.14.416c1.07.405 2.07.925 2.963 1.573-1.082 1.26-1.752 3.017-1.752 4.948 0 3.827 2.633 6.938 5.878 6.938z"/>
        <path fill="#CF9E76" d="M23.355 43.744H3.671c-1.28 0-2.316-1.063-2.316-2.375v-14.25c0-1.312 1.037-2.375 2.316-2.375h19.684v19z"/>
        <path fill="#838F9B" d="M47.355 57.642v.272a3.813 3.813 0 0 1-1.125 2.705 3.813 3.813 0 0 1-2.704 1.125 3.83 3.83 0 0 1-3.716-2.898l-2.955-11.84a4.556 4.556 0 0 0-4.409-3.444h-3.272c-.478 0-.932-.045-1.375-.136a6.815 6.815 0 0 1-5.444-6.682h13.637l1.59.261a7.976 7.976 0 0 1 6.444 6.034l3.227 13.728c.068.284.102.58.102.875z"/>
        <path fill="#B4DD7F" d="M54.355 21.76c-.022 1.413-.994 2.589-2.285 2.862-.183.036-.377.06-.572.06H36.07v13.062H22.355v-9.5c0-.82.103-1.615.286-2.375a9.742 9.742 0 0 1 2.389-4.346c1.657-1.71 3.943-2.779 6.468-2.779h20c.789 0 1.509.332 2.023.867a3.03 3.03 0 0 1 .834 2.102v.047z"/>
        <path fill="#FCD770" d="M8.355 25.744h7v7h-7z"/>
        <path fill="#E6E9ED" d="M38.355 6.173h-.317c-1.778 0-3.415.971-4.216 2.525l-1.047 2.046h-9.42c0-4.423 3.686-8 8.242-8 2.802 0 5.275 1.349 6.758 3.429z"/>
        <path fill="#CCD1D9" d="M45.667 6.469c.432.45.688 1.075.688 1.775 0 1.375-1.05 2.5-2.333 2.5H32.355l1.039-2.238c.793-1.7 2.415-2.762 4.176-2.762h6.452c.642 0 1.225.275 1.645.725z"/>
        <path fill="#F0D0B4" d="M32.498 10.744h6.857c0 4.411-3.588 8-8 8-4.422 0-8-3.589-8-8h9.143z"/>
        <path fill="#838F9B" d="M6.355 62.877l.036-.133c.368.089.76.133 1.152.133h3.562c0 2.45 2.126 4.433 4.75 4.433 2.625 0 4.75-1.984 4.75-4.433h4.75c0 4.899-4.25 8.867-9.5 8.867-5.248 0-9.5-3.968-9.5-8.867zM54.105 62.744c0 2.486 2.126 4.5 4.75 4.5 2.625 0 4.75-2.014 4.75-4.5h4.75c0 4.972-4.25 9-9.5 9-5.248 0-9.5-4.028-9.5-9h4.75z"/>
        <path fill="#FFC729" d="M66.355 49.005c0 .548-.035 1.085-.105 1.622h-.011c-.339.07-.689.117-1.05.117-3.22 0-5.834-3.14-5.834-7.004 0-1.95.665-3.724 1.739-4.996a12.622 12.622 0 0 1 5.261 10.26z"/>
        <path fill="#FFEAA7" d="M63.355 26.744v7h-3.5a3.495 3.495 0 0 1-3.5-3.5c0-.968.397-1.843 1.027-2.473a3.492 3.492 0 0 1 2.473-1.027h3.5z"/>
        <path fill="#FCD770" d="M63.355 26.744h5v7h-5z"/>
        <path fill="#000" d="M72.355 62.293c0-3.8-2.066-7.244-5.325-9.084.441-1.358.68-2.789.68-4.258 0-5.697-3.585-10.87-8.92-12.871l-.37-.14v-2.163c.686.4 1.472.646 2.323.646h9.29v-9.29h-9.29c-.85 0-1.637.246-2.323.645v-.645c0-1.86-.902-3.597-2.385-4.683-.301-1.946-1.973-3.446-4.002-3.446l-14.202-.001a9.267 9.267 0 0 0 3.086-5.808h3.564a3.488 3.488 0 0 0 3.484-3.484 3.488 3.488 0 0 0-3.484-3.483h-5.544a9.286 9.286 0 0 0-7.23-3.484c-5.123 0-9.29 4.168-9.29 9.29 0 3.444 1.888 6.45 4.68 8.054a10.493 10.493 0 0 0-5.232 5.883H3.839a3.488 3.488 0 0 0-3.484 3.484V41.39a3.488 3.488 0 0 0 3.484 3.484h3.613a8.098 8.098 0 0 0-2.451 5.806v2.353c-1.402 1.06-2.323 2.725-2.323 4.615a5.813 5.813 0 0 0 3.519 5.332c.356 5.443 4.885 9.764 10.416 9.764 5.371 0 9.804-4.073 10.384-9.29h22.201c.58 5.217 5.012 9.29 10.383 9.29 5.371 0 9.804-4.073 10.383-9.29h2.391v-1.161zM69.95 61.13h-8.727l2.46-2.46a13.815 13.815 0 0 0 2.45-3.318 8.129 8.129 0 0 1 3.817 5.778zm-28.564-2.083L38.362 46.95a5.798 5.798 0 0 0-5.633-4.398h-3.345a5.815 5.815 0 0 1-5.688-4.645h12.562l1.536.257a6.948 6.948 0 0 1 5.637 5.277l3.3 14.029c.05.21.074.421.074.632v.28c0 .734-.286 1.425-.805 1.945a2.73 2.73 0 0 1-1.945.805 2.748 2.748 0 0 1-2.669-2.083zm-1.592 2.083h-4.6v-10.45c0-2.273-.94-4.329-2.449-5.806a3.48 3.48 0 0 1 3.365 2.636l3.024 12.1c.137.552.365 1.063.66 1.52zm9.2-4.19L45.692 42.91a9.266 9.266 0 0 0-7.517-7.037l-.658-.11-.003-10.63h13.938v36h-3.14c.527-.815.816-1.76.815-2.753v-.278c0-.386-.045-.775-.133-1.16zm13.857 6.513a3.48 3.48 0 0 1-3.27 2.322 3.48 3.48 0 0 1-3.27-2.322h6.54zm2.537-14.503c0 .19-.019.376-.028.564-2.55-.018-4.617-2.612-4.617-5.802 0-1.19.288-2.32.82-3.277 2.375 2.132 3.825 5.215 3.825 8.515zm-5.712-9.887c-.812 1.355-1.256 2.961-1.256 4.649 0 4.333 2.925 7.876 6.593 8.106a11.354 11.354 0 0 1-2.972 5.21l-4.102 4.102h-4.164V24.725a4.067 4.067 0 0 0 1.705-1.53c.383.568.617 1.233.617 1.938V37.55l1.877.704c.596.223 1.162.498 1.702.81zM67.71 32.1h-2.322v-4.645h2.322V32.1zm-6.967-4.645h2.322V32.1h-2.322a2.325 2.325 0 0 1-2.323-2.322 2.325 2.325 0 0 1 2.323-2.323zm-15.1-19.744c0 .64-.52 1.162-1.16 1.162h-9.735l.199-.396a3.467 3.467 0 0 1 3.117-1.927h6.418c.641 0 1.161.522 1.161 1.161zM31.708 3.066c1.597 0 3.12.559 4.34 1.532a5.76 5.76 0 0 0-3.179 2.84l-.717 1.435h-7.307c.556-3.29 3.417-5.807 6.863-5.807zm-6.863 8.13H38.57C38.015 14.485 35.153 17 31.707 17c-3.447 0-6.306-2.516-6.862-5.806zm6.865 8.128l20.323.002c.96 0 1.742.782 1.742 1.742s-.782 1.742-1.742 1.742H30.549v2.323h4.643l.002 10.45H23.58v-8.128c0-4.484 3.648-8.131 8.131-8.131zm-22.064 6.97h4.645v4.645H9.646v-4.645zM3.839 42.55c-.64 0-1.161-.52-1.161-1.16V27.454c0-.64.52-1.161 1.161-1.161h3.484v6.967h9.29v-6.967h4.712c-.043.382-.069.769-.069 1.161v9.289c0 2.274.942 4.33 2.452 5.807H3.84zm12.774 27.87c-4.086 0-7.469-3.035-8.036-6.967h2.347a5.816 5.816 0 0 0 5.69 4.645 5.816 5.816 0 0 0 5.689-4.645h2.347c-.567 3.932-3.95 6.967-8.037 6.967zm-3.27-6.967h6.54a3.48 3.48 0 0 1-3.27 2.322c-1.513 0-2.789-.974-3.27-2.322zm14.883-2.323H8.484a3.488 3.488 0 0 1-3.483-3.483 3.488 3.488 0 0 1 3.483-3.484h16.259a3.488 3.488 0 0 1 3.483 3.484v3.483zm-3.483-9.29H8.484c-.397 0-.786.041-1.16.118V50.68a5.813 5.813 0 0 1 5.806-5.806H27.065a5.813 5.813 0 0 1 5.807 5.806v10.451h-2.323v-3.483a5.813 5.813 0 0 0-5.806-5.807zm34.838 18.58c-4.086 0-7.47-3.035-8.036-6.967h2.347a5.816 5.816 0 0 0 5.69 4.645 5.816 5.816 0 0 0 5.688-4.645h2.347c-.566 3.932-3.95 6.967-8.036 6.967z"/>
        <path fill="#000" d="M11.355 56.744h2v2h-2zM16.355 56.744h2v2h-2zM7.355 56.744h2v2h-2z"/>
    </g>
</svg>
